<?xml version="1.0" encoding="UTF-8"?>
<svg width="656px" height="432px" viewBox="0 0 656 432" version="1.1" xmlns="http://www.w3.org/2000/svg" xmlns:xlink="http://www.w3.org/1999/xlink">
    <title>Artboard Copy</title>
    <defs>
        <linearGradient x1="45.4487814%" y1="44.436042%" x2="15.0575542%" y2="100%" id="linearGradient-1">
            <stop stop-color="#FFB9D8" offset="0%"></stop>
            <stop stop-color="#FFFFFF" offset="100%"></stop>
        </linearGradient>
        <linearGradient x1="56.8649137%" y1="50%" x2="86.8582825%" y2="-5.39823553%" id="linearGradient-2">
            <stop stop-color="#FFB9D8" offset="0%"></stop>
            <stop stop-color="#FFFFFF" offset="100%"></stop>
        </linearGradient>
        <linearGradient x1="50%" y1="54.4211692%" x2="100%" y2="83.5458701%" id="linearGradient-3">
            <stop stop-color="#FFB9D8" offset="0%"></stop>
            <stop stop-color="#FFFFFF" offset="100%"></stop>
        </linearGradient>
        <linearGradient x1="58.3862242%" y1="50%" x2="7.84724157e-14%" y2="17.1869985%" id="linearGradient-4">
            <stop stop-color="#FFB9D8" offset="0%"></stop>
            <stop stop-color="#FFFFFF" offset="100%"></stop>
        </linearGradient>
        <linearGradient x1="46.5074641%" y1="17.6114356%" x2="16.0336651%" y2="100%" id="linearGradient-5">
            <stop stop-color="#FFB9D8" offset="0%"></stop>
            <stop stop-color="#FFFFFF" offset="100%"></stop>
        </linearGradient>
        <linearGradient x1="50%" y1="62.4059219%" x2="91.4213489%" y2="-1.9332529e-13%" id="linearGradient-6">
            <stop stop-color="#FFB9D8" offset="0%"></stop>
            <stop stop-color="#FFFFFF" offset="100%"></stop>
        </linearGradient>
        <linearGradient x1="41.0508296%" y1="50%" x2="100%" y2="83.5551725%" id="linearGradient-7">
            <stop stop-color="#FFB9D8" offset="0%"></stop>
            <stop stop-color="#FFFFFF" offset="100%"></stop>
        </linearGradient>
        <linearGradient x1="58.3862242%" y1="50%" x2="7.84724157e-14%" y2="16.4448275%" id="linearGradient-8">
            <stop stop-color="#FFB9D8" offset="0%"></stop>
            <stop stop-color="#FFFFFF" offset="100%"></stop>
        </linearGradient>
    </defs>
    <g id="Artboard-Copy" stroke="none" stroke-width="1" fill="none" fill-rule="evenodd" stroke-linecap="round" stroke-linejoin="round">
        <g id="Group-3" transform="translate(-6, -23)" stroke-width="6">
            <g id="Group-2" transform="translate(218.7445, 0)">
                <path d="M216.757098,254.014232 C208.584548,242.988755 189.388559,261.427915 172.663341,245.079794 C158.598953,231.392995 179.315416,211.623174 154.607707,203.25902 C100.820926,184.81986 40.0019506,226.640634 33.1598159,316.555299 C31.2592229,340.507197 33.5399345,364.649189 42.2826622,389.361465 C74.4026836,392.212882 107.092883,395.064298 136.171955,384.41901 C170.952807,371.872778 197.751168,346.400124 215.806801,313.513788 C227.0203,293.173684 230.061249,271.693014 216.757098,254.014232" id="XMLID_308_" stroke="#D99AB6" fill="#FFB9D8" transform="translate(129.0364, 295.4827) scale(-1, -1) rotate(26) translate(-129.0364, -295.4827)"></path>
                <path d="M176.787326,242.735647 C168.956092,243.879943 159.978824,244.261375 151.765579,236.251306 C138.013168,222.901193 157.877761,203.44817 134.957077,194.675238 C87.3966558,192.386647 40.6002578,234.344147 34.6790809,312.53767 C32.9600296,335.614295 34.8700866,358.881636 42.8923263,382.721125 C67.9140737,384.437568 92.5538098,384.246852 115.283489,376.046068 C150.237533,363.458818 177.169338,337.902886 195.31488,304.909034 C206.202205,285.265295 209.258296,264.858693 197.98896,247.503545 C194.932868,240.065625 187.483646,240.447056 176.787326,242.735647" id="XMLID_307_" stroke="#D99AB6" fill="url(#linearGradient-1)" transform="translate(119.5979, 289.0863) scale(-1, -1) rotate(26) translate(-119.5979, -289.0863)"></path>
                <path d="M57.0426648,322.553626 C65.9954765,321.412548 74.7578027,319.51075 83.1391582,316.467874 C117.997978,303.916009 144.856413,278.431921 162.952521,245.530822 C173.810186,225.942306 176.857952,205.593071 165.619316,188.286713 C165.428831,187.906353 165.428831,187.716173 165.238345,187.335814 C136.094086,241.156687 96.8541037,287.37037 47.7088825,323.314345 C50.7566482,323.504525 53.9948992,322.363446 57.0426648,322.553626" id="XMLID_306_" stroke="#D99AB6" fill="#FFB9D8" transform="translate(110.2089, 255.3358) scale(-1, -1) rotate(26) translate(-110.2089, -255.3358)"></path>
                <path d="M251.907369,214.901255 C260.079918,225.926732 279.275907,207.487572 296.001126,223.835693 C310.065514,237.522492 289.34905,257.292313 314.056759,265.656468 C367.84354,284.095627 428.662516,242.274853 435.504651,152.360188 C437.405244,128.40829 435.124532,104.266298 426.381804,79.554022 C394.261783,76.7026055 361.571584,73.8511891 332.492511,84.4964771 C297.711659,97.0427094 270.913298,122.515363 252.857665,155.401699 C241.644166,175.931897 238.603218,197.222473 251.907369,214.901255" id="XMLID_304_" stroke="#D99AB6" fill="#FFB9D8" transform="translate(339.628, 173.4328) scale(-1, -1) rotate(26) translate(-339.628, -173.4328)"></path>
                <path d="M292.186157,227.130896 C300.017391,225.986601 308.994659,225.605169 317.207905,233.615237 C330.960316,246.965351 311.095722,266.418374 334.016407,275.191306 C381.576828,277.479897 428.373226,235.522396 434.294403,157.328873 C436.013454,134.252248 434.103397,110.984907 426.081157,87.1454186 C401.05941,85.4289754 376.419674,85.6196913 353.689995,93.8204754 C318.73595,106.407725 291.804146,131.963657 273.658604,164.95751 C262.771279,184.601248 259.715187,205.007851 270.984524,222.362999 C274.040615,229.800919 281.680843,229.610203 292.186157,227.130896" id="XMLID_303_" stroke="#D99AB6" fill="url(#linearGradient-2)" transform="translate(349.3756, 180.7802) scale(-1, -1) rotate(26) translate(-349.3756, -180.7802)"></path>
                <path d="M411.621802,146.417671 C402.66899,147.558278 393.906664,149.459291 385.525308,152.500911 C350.666489,165.047595 323.808054,190.521165 305.711945,223.408685 C294.85428,242.989116 291.806514,263.329951 303.04515,280.629167 C303.235636,281.00937 303.235636,281.199471 303.426121,281.579673 C332.57038,227.781014 371.810363,181.586406 420.955584,145.657266 C417.907818,145.277063 414.669567,146.417671 411.621802,146.417671" id="XMLID_302_" stroke="#D99AB6" fill="#FFB9D8" transform="translate(358.4556, 213.5797) scale(-1, -1) rotate(26) translate(-358.4556, -213.5797)"></path>
                <path d="M233.694846,269.312033 C223.922981,279.042313 244.999553,295.450236 231.012373,314.338427 C219.324456,330.173981 196.715043,312.430529 191.733308,338.187153 C181.003417,394.279357 231.203978,448.654452 322.024841,442.930758 C346.167096,441.404439 369.92614,435.871535 393.301974,423.660987 C391.577527,391.41751 389.85308,358.601663 375.09948,330.937141 C357.663407,298.121294 328.539418,275.226517 293.092457,261.87123 C271.249464,253.476479 249.598077,253.667269 233.694846,269.312033" id="XMLID_300_" stroke="#D99AB6" fill="#FFB9D8" transform="translate(291.802, 349.8461) scale(-1, -1) rotate(26) translate(-291.802, -349.8461)"></path>
                <path d="M224.909046,336.475339 C213.472264,351.860585 191.551766,335.14575 186.214601,358.888413 C190.598701,406.183797 238.633183,446.261411 316.975138,441.322937 C340.039314,439.803407 362.912877,434.674992 385.214601,423.468455 C383.308471,398.586145 379.686823,374.273658 368.440655,353.000233 C351.094869,320.330329 322.121689,297.537373 286.858279,284.241482 C265.890846,276.263947 245.304639,276.074006 229.674371,289.559838 C222.621689,293.548605 223.95598,300.766375 227.768241,310.833264 C230.055597,318.430916 231.771115,327.168216 224.909046,336.475339 Z" id="XMLID_299_" stroke="#D99AB6" fill="url(#linearGradient-3)" transform="translate(285.7146, 360.2357) scale(-1, -1) rotate(26) translate(-285.7146, -360.2357)"></path>
                <path d="M329.926185,420.810118 C327.44065,412.028826 324.381531,403.629329 320.175241,395.802526 C302.776499,362.968129 273.714864,340.060411 238.343795,326.697575 C217.312348,318.679873 196.663292,318.488976 180.985304,332.042709 C180.602914,332.233607 180.411719,332.424504 180.02933,332.615402 C237.579015,353.995939 289.201657,386.44854 332.02933,430.164103 C332.02933,427.109741 330.308575,424.055378 329.926185,420.810118" id="XMLID_298_" stroke="#D99AB6" fill="#FFB9D8" transform="translate(256.0293, 375.6641) scale(-1, -1) rotate(26) translate(-256.0293, -375.6641)"></path>
                <path d="M231.735417,209.066008 C241.507282,199.335728 220.430711,182.927805 234.41789,164.039614 C246.105807,148.20406 268.71522,165.947512 273.696955,140.190888 C284.426846,84.0986844 234.226285,29.7235892 143.405422,35.4472835 C119.263168,36.9736019 95.5041233,42.5065064 72.1282895,54.717054 C73.8527362,86.9605315 75.577183,119.776378 90.330783,147.440901 C107.766856,180.256747 136.890846,203.151524 172.337807,216.506811 C194.180799,224.901562 215.832186,224.710773 231.735417,209.066008" id="XMLID_296_" stroke="#D99AB6" fill="#FFB9D8" transform="translate(173.6283, 128.5319) scale(-1, -1) rotate(26) translate(-173.6283, -128.5319)"></path>
                <path d="M237.495029,142.291322 C244.132319,133.362557 254.300539,135.245144 262.709128,133.756884 C265.581302,133.248529 262.844826,136.065821 270.498893,130.48674 C278.152961,124.90766 277.064464,109.326343 278.246228,104.069202 C273.862128,56.7738185 223.770891,32.5052499 145.428937,37.4437237 C122.364761,38.9632541 99.4911979,44.0916693 77.1894738,55.298206 C79.0956041,80.1805164 82.7172516,104.493003 93.9634201,125.766429 C111.309206,158.436332 140.282386,181.229288 175.545796,194.525179 C196.513229,202.502714 216.599435,201.82663 232.229704,188.340798 C239.282386,184.35203 238.448094,178.000286 234.635834,167.933397 C232.348478,160.335745 230.63296,151.598445 237.495029,142.291322 Z" id="XMLID_295_" stroke="#D99AB6" fill="url(#linearGradient-4)" transform="translate(177.7179, 118.2516) scale(-1, -1) rotate(26) translate(-177.7179, -118.2516)"></path>
                <path d="M132.983931,56.283844 C135.469466,65.0651361 138.528585,73.4646329 142.734875,81.2914367 C160.133617,114.125833 189.195252,137.033552 224.566321,150.396387 C245.597768,158.414089 266.246824,158.604987 281.924812,145.051253 C282.307202,144.860355 282.498397,144.669458 282.880787,144.47856 C225.331101,123.098023 173.70846,90.6454217 130.880787,46.929859 C130.880787,50.1751191 132.601541,53.2294815 132.983931,56.283844" id="XMLID_294_" stroke="#D99AB6" fill="#FFB9D8" transform="translate(206.8808, 101.4299) scale(-1, -1) rotate(26) translate(-206.8808, -101.4299)"></path>
                <path d="M233.5398,205.729016 C251.562348,205.917796 265.942041,220.453821 265.750311,238.01032 C265.558582,255.755597 250.795431,269.914064 232.964613,269.725284 C214.942065,269.536505 200.562372,255.000479 200.754102,237.443981 C200.945831,219.698703 215.517253,205.540237 233.5398,205.729016" id="Combined-Shape" stroke="#81A711" fill="#A4D905" transform="translate(233.2522, 237.7272) scale(-1, -1) rotate(26) translate(-233.2522, -237.7272)"></path>
            </g>
            <g id="Group" transform="translate(0, 23.6162)">
                <path d="M172.257212,59.712369 C165.462875,50.6512191 150.112707,65.7531355 136.272392,52.4131094 C124.948498,41.3383707 141.808518,25.2296599 121.425508,18.1820989 C77.3881418,3.0801825 28.066291,37.311193 22.5301649,110.555488 C21.0203124,129.93628 22.781807,149.82047 30.0794278,169.956359 C56.2502057,172.221646 82.9242679,174.486934 106.578625,165.929181 C135.014182,155.609538 156.655402,134.970252 171.502285,108.2902 C180.561401,91.678092 183.077822,74.0591896 172.257212,59.712369" id="XMLID_364_" stroke="#D99AB6" fill="#FFB9D8" transform="translate(100.7086, 93.353) scale(-1, -1) rotate(102) translate(-100.7086, -93.353)"></path>
                <path d="M130.329391,42.3434728 C119.237523,31.5719335 135.119061,15.790376 116.716644,8.77635038 C77.8951087,6.77234308 40.0819247,40.8404673 35.2922547,104.217198 C33.7797273,123.004767 35.5443426,141.792335 41.8465399,160.830405 C62.0135714,162.082909 82.1806029,162.082909 100.835107,155.319385 C129.321039,145.048847 151.000598,124.507772 165.873784,97.9546755 C174.69686,82.173118 177.217739,65.6400577 168.142575,51.6120065 C165.369608,45.5999846 159.319498,45.8504855 150.74851,47.6039919 C144.446313,48.6059956 137.135764,48.8564965 130.329391,42.3434728 Z" id="XMLID_363_" stroke="#D99AB6" fill="url(#linearGradient-5)" transform="translate(104.3109, 85.0817) scale(-1, -1) rotate(102) translate(-104.3109, -85.0817)"></path>
                <path d="M85.5369259,125.965568 C92.8992333,124.959246 100.007668,123.449763 107.116103,120.933957 C135.803715,110.619156 157.636764,89.9895538 172.615252,63.3220189 C181.500795,47.4724463 184.039522,30.8681322 174.900106,16.7796232 C174.900106,16.5280427 174.646233,16.2764622 174.646233,16.0248816 C150.782202,59.7998917 118.540373,97.5369693 78.1746185,126.720309 C80.2055998,126.720309 82.9981992,125.713987 85.5369259,125.965568" id="XMLID_362_" stroke="#D99AB6" fill="#FFB9D8" transform="translate(129.4056, 71.3726) scale(-1, -1) rotate(102) translate(-129.4056, -71.3726)"></path>
                <path d="M167.917624,268.171911 C174.711961,277.233061 190.062128,262.131144 203.902444,275.47117 C215.226338,286.545909 198.366318,302.65462 218.749327,309.702181 C262.786694,324.804097 312.108545,290.573087 317.644671,217.328792 C319.154523,197.947999 317.393029,178.06381 310.095408,157.927921 C283.92463,155.662634 257.250568,153.397346 233.596211,161.955099 C205.160654,172.274742 183.519434,192.914027 168.67255,219.59408 C159.613435,236.206188 157.097014,253.573392 167.917624,268.171911" id="XMLID_360_" stroke="#D99AB6" fill="#FFB9D8" transform="translate(239.4663, 234.5313) scale(-1, -1) rotate(102) translate(-239.4663, -234.5313)"></path>
                <path d="M209.643054,286.818655 C220.734921,297.590194 204.853384,313.371752 223.2558,320.385777 C262.077336,322.389785 299.89052,288.321661 304.68019,224.944929 C306.192717,206.157361 304.428102,187.369792 298.125905,168.331723 C277.958873,167.079219 257.791842,167.079219 239.137337,173.842743 C210.651405,184.113281 188.971847,204.654356 174.098661,231.207452 C165.275585,246.98901 162.754706,263.52207 171.82987,277.550121 C174.602837,283.812644 180.652946,283.562143 189.223934,281.558136 C195.526132,280.556132 202.836681,280.305631 209.643054,286.818655 Z" id="XMLID_359_" stroke="#D99AB6" fill="url(#linearGradient-6)" transform="translate(235.6615, 244.0804) scale(-1, -1) rotate(102) translate(-235.6615, -244.0804)"></path>
                <path d="M254.233127,204.474408 C246.87082,205.48073 239.762385,206.990213 232.65395,209.506018 C203.966339,219.82082 182.133289,240.450422 167.154801,267.117957 C158.269258,282.96753 155.730531,299.571844 164.869947,313.660353 C164.869947,313.911933 165.12382,314.163514 165.12382,314.415094 C188.987851,270.640084 221.22968,232.903007 261.595435,203.719667 C259.310581,203.719667 256.771854,204.725989 254.233127,204.474408" id="XMLID_358_" stroke="#D99AB6" fill="#FFB9D8" transform="translate(210.3645, 259.0674) scale(-1, -1) rotate(102) translate(-210.3645, -259.0674)"></path>
                <path d="M44.7359747,166.364482 C36.7076325,174.418681 53.7678598,187.506754 42.4780035,202.86007 C33.1952328,215.696449 14.8805771,201.349908 10.8664059,222.240486 C2.08540661,267.797048 42.7288892,312.095141 115.987512,307.31296 C135.556596,306.054492 154.623909,301.524005 173.440336,291.70795 C172.185908,265.531804 170.680594,238.852271 158.888966,216.451531 C144.839367,189.771997 121.256112,171.146663 92.9060282,160.323833 C74.8422581,153.528103 57.2802595,153.528103 44.7359747,166.364482" id="XMLID_356_" stroke="#D99AB6" fill="#FFB9D8" transform="translate(91.5623, 231.7366) scale(-1, -1) rotate(102) translate(-91.5623, -231.7366)"></path>
                <path d="M32.2250911,210.436653 C22.9073996,222.995789 5.02750496,209.431922 0.746403434,228.772992 C4.27201645,267.203948 43.3055892,299.857702 107.018453,295.838778 C125.905666,294.582864 144.289219,290.312758 162.672773,281.27018 C161.161796,261.175563 158.139842,241.332128 149.07398,224.00052 C134.971528,197.375152 111.299555,178.78763 82.8428209,167.986773 C65.7184148,161.456023 49.0976677,161.456023 36.5061926,172.25688 C30.4622846,175.522255 31.4696026,181.55064 34.7433861,189.588487 C36.5061926,195.868055 38.0171697,202.901172 32.2250911,210.436653 Z" id="XMLID_355_" stroke="#D99AB6" fill="url(#linearGradient-7)" transform="translate(81.7096, 229.8486) scale(-1, -1) rotate(102) translate(-81.7096, -229.8486)"></path>
                <path d="M122.886065,247.337776 C120.865563,240.274386 118.339936,233.463261 115.056621,226.904399 C100.913109,200.164425 77.1722151,181.496897 48.6326294,170.649549 C31.4583654,164.090687 14.7892268,164.090687 2.16109152,174.938035 C1.90852881,175.190299 1.6559661,175.190299 1.4034034,175.442563 C48.3800667,192.848772 90.3054758,219.336482 124.906567,254.905693 C124.654004,252.383054 123.138628,249.860415 122.886065,247.337776" id="XMLID_354_" stroke="#D99AB6" fill="#FFB9D8" transform="translate(63.155, 210.536) scale(-1, -1) rotate(102) translate(-63.155, -210.536)"></path>
                <path d="M289.587349,161.247961 C297.615691,153.193762 280.555464,140.105689 291.84532,124.752373 C301.128091,111.915994 319.442747,126.262535 323.456918,105.371957 C332.237917,59.8153954 291.594434,15.5173022 218.335812,20.2994827 C198.766727,21.5579513 179.699415,26.0884381 160.882987,35.9044928 C162.137416,62.0806388 163.64273,88.7601722 175.434358,111.160912 C189.483957,137.840446 213.067212,156.465781 241.417295,167.28861 C259.481065,174.08434 277.043064,174.08434 289.587349,161.247961" id="XMLID_352_" stroke="#D99AB6" fill="#FFB9D8" transform="translate(242.761, 95.8759) scale(-1, -1) rotate(102) translate(-242.761, -95.8759)"></path>
                <path d="M300.080265,117.511127 C309.397956,104.951991 327.277851,118.515858 331.558952,99.1747885 C328.033339,60.7438324 288.999767,28.0900788 225.286903,32.1090023 C206.39969,33.3649159 188.016137,37.6350221 169.632583,46.6776 C171.14356,66.7722177 174.165514,86.6156525 183.231376,103.94726 C197.333828,130.572629 221.005801,149.16015 249.462535,159.961007 C266.586941,166.491758 283.207688,166.491758 295.799163,155.690901 C301.843071,152.425525 300.835753,146.39714 297.56197,138.359293 C295.799163,132.079725 294.288186,125.046609 300.080265,117.511127 Z" id="XMLID_351_" stroke="#D99AB6" fill="url(#linearGradient-8)" transform="translate(250.5958, 98.0992) scale(-1, -1) rotate(102) translate(-250.5958, -98.0992)"></path>
                <path d="M210.697139,80.8123959 C212.717641,87.8757852 215.243268,94.6869107 218.526583,101.245772 C232.670094,127.985746 256.410989,146.653275 284.950575,157.500623 C302.124839,164.059484 318.793977,164.059484 331.422112,153.212137 C331.674675,152.959873 331.927238,152.959873 332.179801,152.707609 C285.203137,135.301399 243.277728,108.813689 208.676637,73.2444788 C209.181763,75.7671178 210.444576,78.2897569 210.697139,80.8123959" id="XMLID_350_" stroke="#D99AB6" fill="#FFB9D8" transform="translate(270.4282, 117.6141) scale(-1, -1) rotate(102) translate(-270.4282, -117.6141)"></path>
                <path d="M165.988277,134.196797 C182.197645,134.47627 195.05335,147.611468 194.773878,163.541389 C194.494406,179.750782 181.359229,192.606508 165.429334,192.327036 C149.219966,192.047563 136.364261,178.912365 136.643733,162.982444 C136.643733,147.052523 149.77891,133.917325 165.988277,134.196797" id="Combined-Shape" stroke="#81A711" fill="#A4D905" transform="translate(165.7088, 163.262) scale(-1, -1) rotate(102) translate(-165.7088, -163.262)"></path>
            </g>
        </g>
    </g>
</svg>