<?xml version="1.0" encoding="UTF-8"?>
<svg width="658px" height="434px" viewBox="0 0 658 434" version="1.1" xmlns="http://www.w3.org/2000/svg" xmlns:xlink="http://www.w3.org/1999/xlink">
    <title>Artboard Copy 2</title>
    <g id="Artboard-Copy-2" stroke="none" stroke-width="1" fill="none" fill-rule="evenodd" stroke-linecap="round" stroke-linejoin="round">
        <path d="M430.501583,232.014232 C422.329033,220.988755 403.133044,239.427915 386.407826,223.079794 C372.343438,209.392995 393.059901,189.623174 368.352192,181.25902 C314.565411,162.81986 253.746436,204.640634 246.904301,294.555299 C245.003708,318.507197 247.284419,342.649189 256.027147,367.361465 C288.147169,370.212882 320.837368,373.064298 349.91644,362.41901 C384.697292,349.872778 411.495653,324.400124 429.551286,291.513788 C440.764785,271.173684 443.805734,249.693014 430.501583,232.014232" id="XMLID_308_" stroke="#D99AB6" stroke-width="12" fill="#FFD9EA" transform="translate(342.7809, 273.4827) scale(-1, -1) rotate(26) translate(-342.7809, -273.4827)"></path>
        <path d="M390.531811,220.735647 C382.700577,221.879943 373.723309,222.261375 365.510064,214.251306 C351.757653,200.901193 371.622246,181.44817 348.701561,172.675238 C301.141141,170.386647 254.344743,212.344147 248.423566,290.53767 C246.704515,313.614295 248.614572,336.881636 256.636811,360.721125 C281.658559,362.437568 306.298295,362.246852 329.027974,354.046068 C363.982018,341.458818 390.913823,315.902886 409.059365,282.909034 C419.94669,263.265295 423.002781,242.858693 411.733444,225.503545 C408.677353,218.065625 401.228131,218.447056 390.531811,220.735647" id="XMLID_307_" stroke="#D99AB6" stroke-width="12" fill="#FFD9EA" transform="translate(333.3424, 267.0863) scale(-1, -1) rotate(26) translate(-333.3424, -267.0863)"></path>
        <path d="M270.78715,300.553626 C279.739961,299.412548 288.502288,297.51075 296.883643,294.467874 C331.742463,281.916009 358.600898,256.431921 376.697006,223.530822 C387.554671,203.942306 390.602437,183.593071 379.363801,166.286713 C379.173316,165.906353 379.173316,165.716173 378.98283,165.335814 C349.838571,219.156687 310.598589,265.37037 261.453367,301.314345 C264.501133,301.504525 267.739384,300.363446 270.78715,300.553626" id="XMLID_306_" stroke="#D99AB6" stroke-width="12" fill="#FFD9EA" transform="translate(323.9534, 233.3358) scale(-1, -1) rotate(26) translate(-323.9534, -233.3358)"></path>
        <path d="M465.651853,192.901255 C473.824403,203.926732 493.020392,185.487572 509.745611,201.835693 C523.809999,215.522492 503.093535,235.292313 527.801244,243.656468 C581.588025,262.095627 642.407001,220.274853 649.249136,130.360188 C651.149728,106.40829 648.869017,82.2662977 640.126289,57.554022 C608.006268,54.7026055 575.316069,51.8511891 546.236996,62.4964771 C511.456144,75.0427094 484.657783,100.515363 466.60215,133.401699 C455.388651,153.931897 452.347703,175.222473 465.651853,192.901255" id="XMLID_304_" stroke="#D99AB6" stroke-width="12" fill="#FFD9EA" transform="translate(553.3725, 151.4328) scale(-1, -1) rotate(26) translate(-553.3725, -151.4328)"></path>
        <path d="M505.930642,205.130896 C513.761876,203.986601 522.739144,203.605169 530.95239,211.615237 C544.704801,224.965351 524.840207,244.418374 547.760892,253.191306 C595.321313,255.479897 642.117711,213.522396 648.038887,135.328873 C649.757939,112.252248 647.847882,88.9849073 639.825642,65.1454186 C614.803895,63.4289754 590.164159,63.6196913 567.43448,71.8204754 C532.480435,84.4077254 505.548631,109.963657 487.403089,142.95751 C476.515764,162.601248 473.459672,183.007851 484.729009,200.362999 C487.7851,207.800919 495.425328,207.610203 505.930642,205.130896" id="XMLID_303_" stroke="#D99AB6" stroke-width="12" fill="#FFD9EA" transform="translate(563.1201, 158.7802) scale(-1, -1) rotate(26) translate(-563.1201, -158.7802)"></path>
        <path d="M625.366287,124.417671 C616.413475,125.558278 607.651149,127.459291 599.269793,130.500911 C564.410974,143.047595 537.552539,168.521165 519.45643,201.408685 C508.598765,220.989116 505.550999,241.329951 516.789635,258.629167 C516.980121,259.00937 516.980121,259.199471 517.170606,259.579673 C546.314865,205.781014 585.554848,159.586406 634.700069,123.657266 C631.652303,123.277063 628.414052,124.417671 625.366287,124.417671" id="XMLID_302_" stroke="#D99AB6" stroke-width="12" fill="#FFD9EA" transform="translate(572.2001, 191.5797) scale(-1, -1) rotate(26) translate(-572.2001, -191.5797)"></path>
        <path d="M447.439331,247.312033 C437.667466,257.042313 458.744038,273.450236 444.756858,292.338427 C433.068941,308.173981 410.459528,290.430529 405.477793,316.187153 C394.747902,372.279357 444.948463,426.654452 535.769326,420.930758 C559.911581,419.404439 583.670625,413.871535 607.046459,401.660987 C605.322012,369.41751 603.597565,336.601663 588.843965,308.937141 C571.407892,276.121294 542.283903,253.226517 506.836942,239.87123 C484.993949,231.476479 463.342562,231.667269 447.439331,247.312033" id="XMLID_300_" stroke="#D99AB6" stroke-width="12" fill="#FFD9EA" transform="translate(505.5465, 327.8461) scale(-1, -1) rotate(26) translate(-505.5465, -327.8461)"></path>
        <path d="M438.653531,314.475339 C427.216749,329.860585 405.296251,313.14575 399.959086,336.888413 C404.343186,384.183797 452.377668,424.261411 530.719622,419.322937 C553.783799,417.803407 576.657362,412.674992 598.959086,401.468455 C597.052956,376.586145 593.431308,352.273658 582.18514,331.000233 C564.839354,298.330329 535.866174,275.537373 500.602764,262.241482 C479.635331,254.263947 459.049124,254.074006 443.418856,267.559838 C436.366174,271.548605 437.700465,278.766375 441.512726,288.833264 C443.800082,296.430916 445.515599,305.168216 438.653531,314.475339 Z" id="XMLID_299_" stroke="#D99AB6" stroke-width="12" fill="#FFD9EA" transform="translate(499.4591, 338.2357) scale(-1, -1) rotate(26) translate(-499.4591, -338.2357)"></path>
        <path d="M543.67067,398.810118 C541.185135,390.028826 538.126016,381.629329 533.919726,373.802526 C516.520984,340.968129 487.459349,318.060411 452.08828,304.697575 C431.056833,296.679873 410.407777,296.488976 394.729789,310.042709 C394.347399,310.233607 394.156204,310.424504 393.773815,310.615402 C451.3235,331.995939 502.946142,364.44854 545.773815,408.164103 C545.773815,405.109741 544.05306,402.055378 543.67067,398.810118" id="XMLID_298_" stroke="#D99AB6" stroke-width="12" fill="#FFD9EA" transform="translate(469.7738, 353.6641) scale(-1, -1) rotate(26) translate(-469.7738, -353.6641)"></path>
        <path d="M445.479902,187.066008 C455.251767,177.335728 434.175196,160.927805 448.162375,142.039614 C459.850292,126.20406 482.459705,143.947512 487.44144,118.190888 C498.171331,62.0986844 447.97077,7.72358925 357.149907,13.4472835 C333.007653,14.9736019 309.248608,20.5065064 285.872774,32.717054 C287.597221,64.9605315 289.321668,97.7763784 304.075268,125.440901 C321.511341,158.256747 350.63533,181.151524 386.082292,194.506811 C407.925284,202.901562 429.576671,202.710773 445.479902,187.066008" id="XMLID_296_" stroke="#D99AB6" stroke-width="12" fill="#FFD9EA" transform="translate(387.3728, 106.5319) scale(-1, -1) rotate(26) translate(-387.3728, -106.5319)"></path>
        <path d="M451.239514,120.291322 C457.876804,111.362557 468.045024,113.245144 476.453613,111.756884 C479.325787,111.248529 476.589311,114.065821 484.243378,108.48674 C491.897446,102.90766 490.808949,87.3263431 491.990713,82.0692024 C487.606613,34.7738185 437.515376,10.5052499 359.173422,15.4437237 C336.109246,16.9632541 313.235683,22.0916693 290.933959,33.298206 C292.840089,58.1805164 296.461737,82.4930029 307.707905,103.766429 C325.053691,136.436332 354.026871,159.229288 389.290281,172.525179 C410.257714,180.502714 430.34392,179.82663 445.974189,166.340798 C453.026871,162.35203 452.192579,156.000286 448.380319,145.933397 C446.092963,138.335745 444.377445,129.598445 451.239514,120.291322 Z" id="XMLID_295_" stroke="#D99AB6" stroke-width="12" fill="#FFD9EA" transform="translate(391.4623, 96.2516) scale(-1, -1) rotate(26) translate(-391.4623, -96.2516)"></path>
        <path d="M346.728416,34.283844 C349.213951,43.0651361 352.27307,51.4646329 356.47936,59.2914367 C373.878102,92.1258332 402.939737,115.033552 438.310806,128.396387 C459.342253,136.414089 479.991309,136.604987 495.669297,123.051253 C496.051687,122.860355 496.242882,122.669458 496.625272,122.47856 C439.075586,101.098023 387.452945,68.6454217 344.625272,24.929859 C344.625272,28.1751191 346.346026,31.2294815 346.728416,34.283844" id="XMLID_294_" stroke="#D99AB6" stroke-width="12" fill="#FFD9EA" transform="translate(420.6253, 79.4299) scale(-1, -1) rotate(26) translate(-420.6253, -79.4299)"></path>
        <path d="M447.284285,183.729016 C465.306833,183.917796 479.686526,198.453821 479.494796,216.01032 C479.303067,233.755597 464.539916,247.914064 446.709098,247.725284 C428.68655,247.536505 414.306857,233.000479 414.498587,215.443981 C414.690316,197.698703 429.261738,183.540237 447.284285,183.729016" id="Combined-Shape" stroke="#81A711" stroke-width="12" fill="#A4D905" transform="translate(446.9967, 215.7272) scale(-1, -1) rotate(26) translate(-446.9967, -215.7272)"></path>
        <path d="M167.257212,61.3286167 C160.462875,52.2674668 145.112707,67.3693832 131.272392,54.0293571 C119.948498,42.9546184 136.808518,26.8459076 116.425508,19.7983466 C72.3881418,4.69643019 23.066291,38.9274407 17.5301649,112.171735 C16.0203124,131.552528 17.781807,151.436718 25.0794278,171.572606 C51.2502057,173.837894 77.9242679,176.103181 101.578625,167.545429 C130.014182,157.225786 151.655402,136.5865 166.502285,109.906448 C175.561401,93.2943397 178.077822,75.6754372 167.257212,61.3286167" id="XMLID_364_" stroke="#D99AB6" stroke-width="12" fill="#FFD9EA" transform="translate(95.7086, 94.9692) scale(-1, -1) rotate(102) translate(-95.7086, -94.9692)"></path>
        <path d="M125.329391,43.9597204 C114.237523,33.1881812 130.119061,17.4066236 111.716644,10.3925981 C72.8951087,8.38859076 35.0819247,42.456715 30.2922547,105.833446 C28.7797273,124.621015 30.5443426,143.408583 36.8465399,162.446652 C57.0135714,163.699157 77.1806029,163.699157 95.8351071,156.935632 C124.321039,146.665095 146.000598,126.12402 160.873784,99.5709232 C169.69686,83.7893657 172.217739,67.2563054 163.142575,53.2282542 C160.369608,47.2162323 154.319498,47.4667332 145.74851,49.2202396 C139.446313,50.2222433 132.135764,50.4727442 125.329391,43.9597204 Z" id="XMLID_363_" stroke="#D99AB6" stroke-width="12" fill="#FFD9EA" transform="translate(99.3109, 86.6979) scale(-1, -1) rotate(102) translate(-99.3109, -86.6979)"></path>
        <path d="M80.5369259,127.581815 C87.8992333,126.575493 95.0076681,125.06601 102.116103,122.550205 C130.803715,112.235404 152.636764,91.6058015 167.615252,64.9382666 C176.500795,49.088694 179.039522,32.4843799 169.900106,18.3958709 C169.900106,18.1442904 169.646233,17.8927098 169.646233,17.6411293 C145.782202,61.4161394 113.540373,99.153217 73.1746185,128.336557 C75.2055998,128.336557 77.9981992,127.330235 80.5369259,127.581815" id="XMLID_362_" stroke="#D99AB6" stroke-width="12" fill="#FFD9EA" transform="translate(124.4056, 72.9888) scale(-1, -1) rotate(102) translate(-124.4056, -72.9888)"></path>
        <path d="M162.917624,269.788158 C169.711961,278.849308 185.062128,263.747392 198.902444,277.087418 C210.226338,288.162157 193.366318,304.270868 213.749327,311.318428 C257.786694,326.420345 307.108545,292.189334 312.644671,218.94504 C314.154523,199.564247 312.393029,179.680057 305.095408,159.544169 C278.92463,157.278881 252.250568,155.013594 228.596211,163.571346 C200.160654,173.890989 178.519434,194.530275 163.67255,221.210327 C154.613435,237.822435 152.097014,255.189639 162.917624,269.788158" id="XMLID_360_" stroke="#D99AB6" stroke-width="12" fill="#FFD9EA" transform="translate(234.4663, 236.1475) scale(-1, -1) rotate(102) translate(-234.4663, -236.1475)"></path>
        <path d="M204.643054,288.434903 C215.734921,299.206442 199.853384,314.988 218.2558,322.002025 C257.077336,324.006032 294.89052,289.937908 299.68019,226.561177 C301.192717,207.773609 299.428102,188.98604 293.125905,169.947971 C272.958873,168.695466 252.791842,168.695466 234.137337,175.458991 C205.651405,185.729528 183.971847,206.270603 169.098661,232.8237 C160.275585,248.605258 157.754706,265.138318 166.82987,279.166369 C169.602837,285.428892 175.652946,285.178391 184.223934,283.174384 C190.526132,282.17238 197.836681,281.921879 204.643054,288.434903 Z" id="XMLID_359_" stroke="#D99AB6" stroke-width="12" fill="#FFD9EA" transform="translate(230.6615, 245.6967) scale(-1, -1) rotate(102) translate(-230.6615, -245.6967)"></path>
        <path d="M249.233127,206.090656 C241.87082,207.096978 234.762385,208.606461 227.65395,211.122266 C198.966339,221.437067 177.133289,242.06667 162.154801,268.734205 C153.269258,284.583777 150.730531,301.188091 159.869947,315.2766 C159.869947,315.528181 160.12382,315.779761 160.12382,316.031342 C183.987851,272.256332 216.22968,234.519254 256.595435,205.335914 C254.310581,205.335914 251.771854,206.342236 249.233127,206.090656" id="XMLID_358_" stroke="#D99AB6" stroke-width="12" fill="#FFD9EA" transform="translate(205.3645, 260.6836) scale(-1, -1) rotate(102) translate(-205.3645, -260.6836)"></path>
        <path d="M39.7359747,167.98073 C31.7076325,176.034929 48.7678598,189.123001 37.4780035,204.476318 C28.1952328,217.312697 9.88057705,202.966156 5.86640593,223.856734 C-2.91459339,269.413295 37.7288892,313.711389 110.987512,308.929208 C130.556596,307.670739 149.623909,303.140253 168.440336,293.324198 C167.185908,267.148052 165.680594,240.468519 153.888966,218.067778 C139.839367,191.388245 116.256112,172.76291 87.9060282,161.940081 C69.8422581,155.14435 52.2802595,155.14435 39.7359747,167.98073" id="XMLID_356_" stroke="#D99AB6" stroke-width="12" fill="#FFD9EA" transform="translate(86.5623, 233.3528) scale(-1, -1) rotate(102) translate(-86.5623, -233.3528)"></path>
        <path d="M27.2250911,212.052901 C17.9073996,224.612037 0.027504959,211.04817 -4.25359657,230.389239 C-0.727983545,268.820196 38.3055892,301.473949 102.018453,297.455026 C120.905666,296.199112 139.289219,291.929006 157.672773,282.886428 C156.161796,262.79181 153.139842,242.948375 144.07398,225.616768 C129.971528,198.991399 106.299555,180.403878 77.8428209,169.603021 C60.7184148,163.07227 44.0976677,163.07227 31.5061926,173.873127 C25.4622846,177.138503 26.4696026,183.166888 29.7433861,191.204735 C31.5061926,197.484303 33.0171697,204.517419 27.2250911,212.052901 Z" id="XMLID_355_" stroke="#D99AB6" stroke-width="12" fill="#FFD9EA" transform="translate(76.7096, 231.4648) scale(-1, -1) rotate(102) translate(-76.7096, -231.4648)"></path>
        <path d="M117.886065,248.954023 C115.865563,241.890634 113.339936,235.079509 110.056621,228.520647 C95.9131095,201.780673 72.1722151,183.113144 43.6326294,172.265796 C26.4583654,165.706935 9.78922681,165.706935 -2.83890848,176.554283 C-3.09147119,176.806547 -3.3440339,176.806547 -3.5965966,177.058811 C43.3800667,194.46502 85.3054758,220.95273 119.906567,256.52194 C119.654004,253.999301 118.138628,251.476662 117.886065,248.954023" id="XMLID_354_" stroke="#D99AB6" stroke-width="12" fill="#FFD9EA" transform="translate(58.155, 212.1523) scale(-1, -1) rotate(102) translate(-58.155, -212.1523)"></path>
        <path d="M284.587349,162.864209 C292.615691,154.81001 275.555464,141.721937 286.84532,126.368621 C296.128091,113.532241 314.442747,127.878783 318.456918,106.988205 C327.237917,61.4316431 286.594434,17.1335499 213.335812,21.9157304 C193.766727,23.174199 174.699415,27.7046858 155.882987,37.5207405 C157.137416,63.6968865 158.64273,90.3764199 170.434358,112.77716 C184.483957,139.456694 208.067212,158.082028 236.417295,168.904858 C254.481065,175.700588 272.043064,175.700588 284.587349,162.864209" id="XMLID_352_" stroke="#D99AB6" stroke-width="12" fill="#FFD9EA" transform="translate(237.761, 97.4921) scale(-1, -1) rotate(102) translate(-237.761, -97.4921)"></path>
        <path d="M295.080265,119.127375 C304.397956,106.568239 322.277851,120.132106 326.558952,100.791036 C323.033339,62.3600801 283.999767,29.7063264 220.286903,33.72525 C201.39969,34.9811636 183.016137,39.2512698 164.632583,48.2938477 C166.14356,68.3884653 169.165514,88.2319002 178.231376,105.563508 C192.333828,132.188876 216.005801,150.776398 244.462535,161.577254 C261.586941,168.108005 278.207688,168.108005 290.799163,157.307148 C296.843071,154.041773 295.835753,148.013388 292.56197,139.975541 C290.799163,133.695973 289.288186,126.662856 295.080265,119.127375 Z" id="XMLID_351_" stroke="#D99AB6" stroke-width="12" fill="#FFD9EA" transform="translate(245.5958, 99.7154) scale(-1, -1) rotate(102) translate(-245.5958, -99.7154)"></path>
        <path d="M205.697139,82.4286436 C207.717641,89.4920329 210.243268,96.3031583 213.526583,102.86202 C227.670094,129.601994 251.410989,148.269523 279.950575,159.116871 C297.124839,165.675732 313.793977,165.675732 326.422112,154.828384 C326.674675,154.57612 326.927238,154.57612 327.179801,154.323856 C280.203137,136.917647 238.277728,110.429937 203.676637,74.8607265 C204.181763,77.3833655 205.444576,79.9060046 205.697139,82.4286436" id="XMLID_350_" stroke="#D99AB6" stroke-width="12" fill="#FFD9EA" transform="translate(265.4282, 119.2304) scale(-1, -1) rotate(102) translate(-265.4282, -119.2304)"></path>
        <path d="M160.988277,135.813045 C177.197645,136.092517 190.05335,149.227715 189.773878,165.157637 C189.494406,181.36703 176.359229,194.222756 160.429334,193.943283 C144.219966,193.663811 131.364261,180.528613 131.643733,164.598692 C131.643733,148.668771 144.77891,135.533573 160.988277,135.813045" id="Combined-Shape" stroke="#81A711" stroke-width="12" fill="#A4D905" transform="translate(160.7088, 164.8782) scale(-1, -1) rotate(102) translate(-160.7088, -164.8782)"></path>
    </g>
</svg>