<?xml version="1.0" encoding="UTF-8"?>
<svg width="656px" height="433px" viewBox="0 0 656 433" version="1.1" xmlns="http://www.w3.org/2000/svg" xmlns:xlink="http://www.w3.org/1999/xlink">
    <title>Combined Shape</title>
    <g id="Page-1" stroke="none" stroke-width="1" fill="none" fill-rule="evenodd">
        <path d="M402.065119,4.05410878 L402.512858,4.24462752 C411.750199,7.97696048 420.635812,14.3965617 428.950743,23.1869005 L429.508395,23.7809085 C450.583715,46.1023795 464.715539,71.4320379 470.874827,98.5906586 C490.150402,75.4981655 512.93269,60.3061788 536.893535,54.1544215 C567.386141,46.3256863 597.368973,53.9704892 618.740105,75.0528885 C618.990752,75.1876734 619.241545,75.3235974 619.49176,75.4608977 C619.9566,75.71597 620.37791,76.0433569 620.739899,76.4307881 C626.037768,82.1010225 628.255594,87.7579377 627.658534,93.6614678 C627.225534,97.942831 625.93341,100.814726 622.340415,107.077739 C621.653604,108.274932 621.268436,108.954143 620.912259,109.606992 L620.748935,109.908225 L620.666955,110.060795 C617.849866,115.318348 617.18585,118.769425 618.674909,122.894094 C621.280924,130.165404 625.8252,133.579376 634.67252,136.465427 L634.95,136.555 L635.319318,136.638582 C641.294806,138.022317 645.527215,139.54083 648.785388,141.733281 L649.107986,141.954793 C653.431021,144.983793 655.718058,149.234504 655.603275,154.515495 L655.594381,154.787912 L655.617979,154.987886 C657.918608,175.85507 647.179721,194.338388 626.529106,209.018904 L625.893852,209.467119 C601.433559,226.715975 574.860431,236.993521 547.600591,239.459809 C574.03022,255.554852 592.858443,276.377118 602.562141,299.687426 C614.783902,329.046647 611.356738,360.069565 593.147122,384.384911 C588.189724,390.976341 582.82072,394.329689 576.750112,394.767564 C574.978102,394.89538 573.403706,394.832168 571.720969,394.539633 C568.842878,394.217979 565.910308,393.237993 561.140323,391.348626 C559.922605,390.866294 559.448711,390.680356 558.815375,390.439482 C556.332915,389.495337 554.266852,388.877221 552.424807,388.603407 C550.002096,388.410241 547.925306,388.869813 545.699893,390.031728 C538.219607,393.922255 535.796654,398.891977 534.093929,409.906911 C533.03156,416.779377 532.790609,418.036411 531.726485,420.777496 C530.050632,425.094341 527.205978,428.134772 522.861259,429.620423 L522.832707,429.630798 L522.176651,429.84542 C509.170198,434.023732 496.322122,432.762601 484.15123,426.809908 C481.528501,425.562911 478.934567,424.098682 476.374573,422.424433 C470.694428,418.824293 465.178332,414.193247 459.874496,408.610985 L459.339853,408.044289 C437.65986,385.041206 423.359217,358.829976 417.564097,330.714545 C399.460887,350.441 378.623351,363.534775 356.808955,369.135448 C327.167492,376.745659 298.007741,369.734105 276.771941,349.970953 C276.016291,349.586183 275.265448,349.189218 274.519747,348.780029 C274.054907,348.524956 273.633597,348.197569 273.271608,347.810138 C267.973739,342.139904 265.755913,336.482989 266.352973,330.579459 C266.561508,328.517537 266.969309,326.782531 267.737428,324.838194 C268.550667,322.556061 269.861169,320.049772 271.909476,316.461211 C272.865472,314.786339 273.301635,314.004631 273.787674,313.072935 C274.572507,311.568478 275.176319,310.205582 275.597478,308.924469 C276.357492,306.255691 276.270506,303.933742 275.336598,301.346832 C273.157199,295.265867 269.622198,291.882687 263.34844,289.249926 C262.410896,291.194592 261.873403,293.454465 261.596019,296.188212 C261.537417,296.837904 261.486936,297.528577 261.442615,298.265597 L261.44888,298.573776 C261.523561,303.703945 261.166838,307.324385 260.044084,310.419018 L259.916164,310.760752 C258.610578,314.143267 256.360746,316.636966 253.221259,318.094908 C252.443567,319.479047 251.039551,320.512734 249.28944,320.63057 L249.215844,320.634594 L248.868899,320.759991 C232.675004,326.511046 215.816853,321.486681 200.210696,307.985413 L199.728432,307.565148 C182.386176,292.31789 169.602122,274.532864 162.069591,254.793537 C154.415815,276.412803 142.278825,293.585557 126.841239,304.971268 C106.352838,320.082116 81.5917737,323.661198 59.0214163,314.795687 C58.3509196,314.736268 57.6806157,314.667029 57.0104068,314.587604 C56.4974358,314.526814 55.996983,314.386899 55.5268621,314.17284 C49.6092605,311.478397 46.0166451,307.754434 44.548724,302.904977 C43.4877092,299.399786 43.5667344,296.705441 44.3325329,290.852288 C44.4408766,290.024195 44.4971826,289.587458 44.5466973,289.178302 L44.5759531,288.933209 L44.5906485,288.807688 C45.1971414,283.597474 44.7442931,280.917166 42.4032531,278.263304 C38.4776927,273.659364 34.6403967,272.6977 26.6599321,273.211052 L26.9260321,273.195094 L26.6636433,273.240977 C21.6939813,274.097908 17.9782094,274.268012 14.7305985,273.542117 L14.3716395,273.457764 C11.2631628,272.691236 8.77052235,271.063633 7.02507293,268.634911 C6.46621108,268.269692 5.9672618,267.779958 5.56907372,267.166007 C5.2190138,266.626263 5.02991563,266.200833 4.87922776,265.714763 L4.86850116,265.678402 L4.78834822,265.528974 C-2.7445214,251.339372 -1.17711252,235.275141 7.99579686,218.997931 C8.91922531,217.324888 9.92319538,215.649964 11.0061665,213.97437 C24.6271415,192.826143 42.1375045,176.555936 62.701818,166.35574 C43.5832655,155.896427 29.1248395,141.999364 20.3571826,125.853596 C7.89308975,102.900786 8.09114142,77.1932968 20.9796139,55.6826268 C24.6251904,49.6328814 28.9528783,46.2591767 34.1613383,45.3353224 C37.9603926,44.6614625 40.6780205,45.1219949 46.6748729,46.8022858 C47.7874713,47.1140308 48.3882153,47.2789531 48.9839826,47.4315864 L49.2837982,47.5075019 C53.7667663,48.6299167 56.3634059,48.490751 59.0320749,46.7153444 C60.8252015,45.5033828 62.1887639,44.176152 63.2163309,42.7123993 C64.2091559,41.298136 64.8849344,39.8692574 65.3559623,38.1013929 C65.7503566,36.4309749 65.9773523,34.5537933 66.0883471,32.4115654 L66.0818873,32.5126084 L66.0876195,32.0560122 C66.1401374,27.9114012 66.4165815,24.8163939 67.1042363,22.1817284 C67.1973771,21.7774952 67.3050761,21.3708515 67.4309183,20.9358749 C68.5231762,17.1604584 70.74984,14.3093303 74.3510907,12.640456 L74.3772062,12.6286918 L74.8534015,12.4099836 C82.7759285,8.83568467 90.9627853,7.99529827 99.1681804,9.59151645 C108.65314,11.287931 118.089829,16.259245 127.108411,24.0614413 L127.590674,24.4817065 C142.520403,37.607877 154.071925,52.6148554 161.802883,69.1303749 C169.495887,49.9932244 180.876021,34.6879034 195.031139,24.2480529 C216.03357,8.7580909 241.525747,5.38579203 264.545516,15.1144258 C270.94108,17.8129845 274.8407,21.5654955 276.479309,26.5265121 C277.676836,30.1521149 277.610381,32.9377741 276.81383,38.9780767 C276.720815,39.6834126 276.671123,40.064321 276.627416,40.4151688 L276.598754,40.6478443 L276.58432,40.766899 C275.938697,46.1170343 276.371874,48.7493717 278.721077,51.3470585 C281.790374,54.7954035 284.745172,56.2199961 289.356212,56.4661566 C290.174637,56.4745879 291.044848,56.4552072 291.974372,56.411801 C293.585465,53.6599674 295.368308,50.9751681 297.321165,48.3675133 C302.278563,41.7760827 307.647567,38.4227353 313.718175,37.9848596 C314.937585,37.896903 316.063415,37.8994079 317.195367,38.0048538 C317.371003,37.9937572 317.536623,37.9858167 317.693843,37.981114 C319.231645,37.9351157 320.548522,38.2030176 321.672507,38.90824 C323.507155,39.4485016 325.602688,40.2227076 328.23642,41.2669248 C329.43791,41.7432891 329.906261,41.9272924 330.531698,42.1657491 C336.937506,44.6080551 340.591118,44.9017021 344.768394,42.7206956 C350.18556,39.9032054 352.950385,36.5197264 354.710127,30.6841343 C355.153299,29.1243435 355.522589,27.4063394 355.84489,25.5031096 L355.897989,25.1876947 L355.936086,24.7767429 C356.410738,19.8953674 357.086588,16.282797 358.240025,13.3437089 C358.387364,12.9082975 358.551407,12.465367 358.741802,11.9749277 C360.16687,8.30408312 362.437099,5.55621515 365.756181,3.9024883 C366.569302,2.62483009 367.955223,1.69907609 369.706593,1.61512483 L369.849,1.611 L369.839127,1.61067189 L369.822343,1.61024421 C369.823981,1.60954042 369.833423,1.60813136 369.852384,1.605585 C369.870021,1.60321627 369.870021,1.60321627 369.889925,1.60055244 C369.971747,1.58962078 370.04951,1.57973414 370.124926,1.57088072 L370.272188,1.5558736 L370.415957,1.51887269 C381.213492,-1.20148407 391.849138,-0.214711876 402.065119,4.05410878 Z M425.537486,289.295335 L425.503154,289.565125 C424.814768,295.225526 424.537797,300.507368 424.690283,305.614295 L424.719677,306.463865 C425.880478,341.111981 440.507107,373.482158 466.627388,401.196544 C479.658237,415.106067 493.510769,422.138592 507.553463,421.397632 L507.896173,421.378622 L506.650185,420.008563 C471.221498,380.930036 443.891416,337.052646 425.552862,289.334102 L425.537486,289.295335 Z M468.310233,244.784747 L467.95703,245.044308 C459.088121,251.444039 447.60137,253.706693 436.626843,250.811087 C433.885652,258.440031 431.66777,265.500354 429.961816,272.187889 C448.61477,326.641294 479.036474,376.261557 519.934148,419.647112 C521.946396,418.135986 522.972726,414.452506 523.679885,406.769317 L523.68585,406.72192 L523.692815,406.644906 L523.701099,406.590283 L523.705149,406.547982 L523.711529,406.51415 L523.723788,406.424297 C525.700387,394.280847 529.683106,386.638588 539.723501,381.231042 L540.170402,380.993917 C547.361232,377.270628 553.654307,377.777767 562.370219,381.09266 C562.462381,381.127711 562.551142,381.161576 562.638761,381.195133 L562.900453,381.295754 C563.382224,381.481747 563.897781,381.684954 564.82291,382.051392 C570.0676,384.128788 572.271756,384.754157 574.620799,384.64469 C577.259468,384.521727 579.758713,383.17303 582.626918,379.786719 L582.67608,379.728656 L582.861319,379.216759 C590.186207,358.675463 587.841101,335.618888 575.915644,314.227038 L575.543761,313.565969 C562.016571,289.735091 537.449716,269.334998 503.79144,255.46685 C491.910626,250.610964 480.145323,247.033491 468.310233,244.784747 Z M414.760539,297.966465 L414.532457,298.297079 C396.444523,324.378472 374.343408,342.683206 350.450081,352.036397 C337.504899,357.103869 324.362649,359.38155 311.675472,358.921337 C324.928935,362.978302 339.509554,363.252609 354.322186,359.449583 C376.321045,353.80155 397.470452,339.633039 415.523889,317.847352 C415.116877,314.200258 414.850256,310.526589 414.726351,306.827977 C414.611924,303.921467 414.624597,300.97752 414.760539,297.966465 Z M482.071919,224.299114 L482.051162,224.378357 C481.417621,226.848595 480.513604,229.286856 479.326216,231.655364 C478.505927,233.292084 477.581429,234.840844 476.564678,236.297743 C486.917337,238.661615 497.223874,241.979584 507.587907,246.215545 C543.236245,260.903631 569.555278,282.758717 584.240376,308.629485 C592.660955,323.464037 596.948335,339.169234 597.026746,354.554496 C601.631919,338.377133 600.481057,320.708618 593.330116,303.530566 C581.592175,275.333581 554.865407,250.734081 516.058532,234.743885 C504.708775,230.069916 493.440195,226.576475 482.071919,224.299114 Z M379.020928,210.519424 L378.430187,210.673883 C357.192545,216.324988 336.463403,223.774132 316.325473,232.964256 C317.507186,247.08876 314.315225,261.172728 306.744275,273.808531 C306.526813,274.169405 306.306923,274.520758 306.084563,274.862636 C305.976562,275.116949 305.845511,275.362651 305.694432,275.596505 C302.169558,281.052603 297.949348,284.053422 292.921243,284.787368 C289.308977,285.314646 286.723567,284.858039 280.976646,283.254406 C279.655525,282.885757 279.042623,282.719638 278.320343,282.540451 C275.426017,281.822413 273.319882,281.63351 271.47508,282.075916 C277.648988,285.503923 281.855586,290.193647 284.574495,297.491799 L284.746347,297.962089 C287.370552,305.231027 286.186029,311.38733 282.158973,318.903053 C281.658936,319.836275 281.237748,320.583298 280.34508,322.139323 C277.472327,327.14687 276.542024,329.214576 276.302219,331.585687 C276.03129,334.26454 277.019715,336.978238 280.012192,340.360584 L280.049176,340.40285 L280.52388,340.653574 C300.099351,350.921614 323.652324,351.787654 346.804861,342.72445 C372.391661,332.708338 396.050247,311.270748 414.403097,279.901885 C415.71823,277.64772 416.979894,275.391296 418.188043,273.130621 C418.552707,271.0512 418.899686,269.871189 419.637251,268.358956 C420.006483,267.601918 420.513474,267.000972 421.102765,266.55244 C422.792884,260.369515 424.87935,253.89937 427.365572,247.009794 C416.614174,240.862683 409.925895,230.149602 408.600095,218.678695 C398.680991,216.821416 388.853915,214.093103 379.020928,210.519424 Z M169.087848,226.415791 L168.964188,227.217367 C168.43163,230.590153 167.808403,233.89118 167.097436,237.117122 C172.649357,260.957101 186.098666,282.266544 206.32829,300.052367 C216.988561,309.409651 227.767246,313.88991 238.100935,312.9659 L238.26214,312.95027 L237.543451,312.29913 C209.775647,287.047048 186.762151,258.244481 169.087848,226.415791 Z M192.034309,174.067623 L191.985802,174.221882 C188.654033,184.751753 180.665975,192.69476 170.936125,196.205152 C171.088229,200.221797 171.073341,204.263122 170.895386,208.337593 C189.657413,246.279826 215.976472,280.134127 248.908264,309.043794 C250.88545,308.074456 251.559423,305.439835 251.448318,298.607091 L251.441,298.249 L251.440874,298.199952 L251.440448,298.173045 L251.439938,298.056845 L251.440873,298.007516 L251.441101,297.983014 L251.442833,297.926146 L251.446547,297.840007 C251.962283,287.88618 254.772777,280.870953 262.648436,275.341754 L263.046452,275.066526 C268.486927,271.419025 273.80577,271.117319 280.7282,272.834668 C281.574314,273.044576 282.251582,273.228141 283.664389,273.622374 C291.435071,275.790721 293.595058,275.62331 296.831876,270.869044 L296.863786,270.821389 L296.963604,270.42256 C301.126872,253.424376 297.416014,235.25473 286.22824,219.200194 L285.839492,218.647432 C273.095719,200.691683 251.766649,186.423053 223.639808,178.186461 C218.906369,176.775111 214.185432,175.608934 209.465125,174.691804 C203.987047,174.788578 198.215518,174.570128 192.034309,174.067623 Z M150.240744,220.345966 C145.636705,251.559739 133.467036,276.812758 115.769026,293.630561 C108.93608,300.123673 101.413965,305.207487 93.4886804,308.790146 C103.0262,307.205572 112.358692,303.227016 120.905651,296.923362 C140.599653,282.398408 154.56172,256.894333 159.392599,223.638245 C160.6643,214.942758 161.211568,206.484608 160.992938,198.158438 C158.077622,198.279529 155.102096,198.015127 152.127395,197.327956 L151.964029,197.291236 C151.949919,204.866801 151.366783,212.527713 150.240744,220.345966 Z M115.094606,164.860751 L115.833546,164.392807 C76.2037921,189.358227 42.7074062,222.854168 16.2653641,263.568748 C17.8244342,264.270827 20.5719598,264.17528 25.4569016,263.299783 L25.5133486,263.290951 L25.5772088,263.279423 L25.619064,263.274573 L25.6769876,263.265288 L25.7359549,263.258525 L25.7960499,263.250836 L25.8529922,263.246598 L25.8963129,263.24069 L25.9519457,263.237983 L26.0179974,263.231678 C30.6756242,262.93207 33.8284491,263.011986 37.1789933,263.795028 L37.617282,263.901178 C42.3412234,265.085045 46.4700294,267.620254 49.9568996,271.71081 C54.5272421,276.889727 55.4261518,282.210174 54.5235792,289.963927 C54.495965,290.201153 54.4706052,290.412789 54.4414757,290.647439 L54.4043253,290.943177 C54.3645943,291.256182 54.3159648,291.630322 54.2480271,292.149584 C53.2118697,300.069144 53.6999633,302.1895 58.9070959,304.713604 L58.9689433,304.7436 L59.367094,304.784542 C76.6745106,306.472912 94.0850073,300.208562 108.393924,286.840024 L108.880521,286.381527 C124.876508,271.181097 136.056162,247.982437 140.345328,218.903587 C141.600122,210.191284 142.136996,201.709794 141.91626,193.334225 C132.087813,187.484128 125.759182,176.892318 125.385421,165.330504 C121.808027,165.067785 118.386293,164.909355 115.094606,164.860751 Z M94.2663803,166.860866 L93.38975,167.007404 C90.880138,167.439632 88.4276334,167.952979 86.0199738,168.55195 L85.0403788,168.80107 L84.29489,169.016549 C58.0729122,176.697024 35.9759245,194.123909 19.5930116,219.197676 L19.0932805,219.967627 C11.3567914,231.925555 8.47152053,243.23121 10.8093213,253.346441 L10.8681545,253.59372 L11.4424423,252.739042 C34.0769591,219.194292 61.5152114,190.564246 93.2375777,167.601604 L94.2663803,166.860866 Z M421.156016,202.654399 C414.514633,215.902097 420.100965,232.25505 433.724478,239.077235 L434.134401,239.278473 C447.687461,245.799277 463.73445,240.446952 470.386421,227.174285 C477.027804,213.926586 471.441471,197.573634 457.817456,190.751196 C444.289499,183.974956 427.844091,189.309692 421.156016,202.654399 Z M249.865297,166.821903 L249.104596,167.120786 C245.730227,168.43316 242.283892,169.591485 238.768864,170.591149 L238.660803,170.620577 C237.847865,170.832213 237.031049,171.034685 236.209985,171.22815 C235.913085,171.302069 235.616271,171.375073 235.318848,171.446709 C261.203827,180.585745 281.294933,194.96641 293.994353,212.859665 C300.042607,221.381547 304.252207,230.507817 306.554169,239.834635 C306.764294,229.320257 304.110258,218.595898 298.578814,208.409662 C289.287028,191.298702 272.588558,176.796766 249.865297,166.821903 Z M645.389439,163.265926 L643.891822,164.285019 C603.458615,191.681542 559.926795,211.512816 514.100781,223.217841 C516.022074,223.945578 517.944055,224.705612 519.867327,225.497639 C522.956852,226.770663 525.976413,228.097234 528.924523,229.475169 C560.424265,230.857026 591.513007,220.911427 619.821786,200.957683 C635.335849,190.098281 644.184611,177.428081 645.370442,163.497476 L645.389439,163.265926 Z M344.738621,194.419176 L344.544963,194.439653 C331.992153,195.822553 319.588036,198.991662 307.486621,203.8612 L307.366707,203.637562 C310.737212,209.844398 313.181793,216.252671 314.699888,222.724919 C330.76138,215.524759 347.190266,209.400269 363.945562,204.379261 C357.171098,201.31888 350.763478,197.989898 344.738621,194.419176 Z M547.915517,81.2421328 L547.206646,81.5164768 C521.619845,91.5325888 497.961259,112.970178 479.608409,144.339042 C475.873319,150.741068 472.569504,157.161315 469.698069,163.645415 C469.309188,165.179084 468.894868,166.725165 468.456963,168.284244 C467.128462,173.014131 465.647768,177.697062 463.910805,182.665802 C475.810228,189.346644 482.806975,201.588048 483.170843,214.323714 C487.359375,215.139529 491.533699,216.112494 495.699756,217.238939 C548.73428,206.055061 598.836807,183.865382 644.77313,151.522885 C643.30552,149.457474 639.745753,147.918958 632.957683,146.356336 L632.52,146.257 C632.442875,146.239341 632.373341,146.221983 632.303894,146.203059 L632.200404,146.172763 L632.097124,146.142279 L632.087815,146.138989 L631.584826,145.976749 C620.238101,142.275217 613.320235,137.172555 609.437012,126.749127 L609.26516,126.278838 C606.640955,119.009899 607.825478,112.853597 611.852534,105.337874 C612.352571,104.404651 612.773759,103.657629 613.666427,102.101604 C616.53918,97.0940567 617.469483,95.0263502 617.709288,92.6552394 C617.980217,89.9763864 616.991792,87.2626885 613.999315,83.8803424 L613.962791,83.8394139 L613.487627,83.5873529 C594.111906,73.424088 570.839442,72.4719257 547.915517,81.2421328 Z M299.871413,129.815878 L299.456663,130.319768 C299.053261,130.802921 298.647362,131.28258 298.238979,131.758725 C310.496409,158.892293 336.771254,182.499766 374.409755,198.008539 C385.907892,202.743613 397.322716,206.26709 408.842286,208.542005 C409.422892,205.017096 410.535768,201.525352 412.216221,198.173319 C412.455296,197.696293 412.703391,197.226749 412.960201,196.764783 C402.605048,194.401486 392.295948,191.082917 381.929323,186.845896 C343.77427,171.124975 315.827368,151.503406 299.871413,129.815878 Z M290.921558,139.647378 L290.584672,139.9833 C281.860469,148.612254 272.185871,155.795353 261.678997,161.366845 C278.962688,170.214257 292.687014,181.774625 302.151059,195.238144 C311.96137,191.166509 321.981379,188.138889 332.133638,186.199784 C313.611206,172.923247 299.647636,157.07297 290.921558,139.647378 Z M135.983506,158.872764 L135.897028,159.262293 C133.154672,172.115659 141.400066,184.824394 154.292141,187.565468 C167.118231,190.527803 179.958936,182.369749 182.983408,169.256547 C185.945737,156.430486 177.787663,143.589794 164.674433,140.565317 C151.848343,137.602982 139.007638,145.761036 135.983506,158.872764 Z M370.070663,14.0177661 L369.950486,14.0721643 C367.572135,15.224733 366.559021,18.4512163 365.837346,26.2921235 C365.826717,26.4076047 365.812073,26.5226812 365.793442,26.6371442 C363.787775,38.9591742 359.716551,46.6466514 349.364215,52.0584785 L349.346828,52.0675244 C342.155998,55.7908133 335.862924,55.283674 327.147011,51.9687814 C326.4558,51.7058953 325.95586,51.5097378 324.69432,51.0100485 C321.92816,49.9143865 320.690328,49.4586928 319.269201,49.0521842 C318.508143,48.834486 317.848011,48.5527293 317.266848,48.2026911 L317.042825,48.0628095 L317.027542,48.0640196 C316.974207,48.0705876 316.919179,48.0775353 316.862439,48.0848678 L316.50128,48.1335229 C315.673538,48.2491279 314.549535,48.4315213 313.085194,48.6920559 C310.635896,49.1278333 307.904148,51.4662206 304.929918,55.6693123 L304.745047,55.9323651 C304.872031,55.9577597 304.998271,55.9844811 305.123811,56.0125413 L305.366,56.069 L305.381916,56.0712559 C308.885602,56.6129215 311.766319,58.1752461 313.870125,60.9752662 C314.525007,61.3532565 315.109498,61.8915217 315.563184,62.5910424 C315.914282,63.1323869 316.102604,63.5561486 316.253273,64.0428584 L316.263004,64.0806995 L316.343909,64.2280758 C322.813403,76.4146059 322.57055,89.9838591 316.562254,103.883221 C314.991021,107.546453 313.022409,111.249579 310.674974,114.976661 L310.306731,115.556674 C308.994595,117.58534 307.64626,119.568852 306.262484,121.506145 C320.49433,142.441644 347.429543,161.815483 385.72579,177.594591 C397.121796,182.252327 408.411525,185.733856 419.758506,187.994773 C428.783933,179.430772 441.756237,175.890517 454.099999,178.82428 C456.070653,173.130026 457.738461,167.74856 459.107446,162.59403 C459.095176,162.562738 459.083891,162.52988 459.072874,162.496788 C440.831448,107.69998 410.729563,57.7357794 370.070663,14.0177661 Z M211.460486,42.7146347 L210.973888,43.1731312 C194.977901,58.373561 183.798248,81.572221 179.509081,110.651072 C178.292833,119.095749 177.751075,127.323576 177.919951,135.448285 C187.645296,141.70573 193.669359,152.528168 193.593103,164.156975 C198.066727,164.50521 202.297066,164.692356 206.333394,164.708793 L205.298712,165.364243 C244.772632,140.496993 278.161325,107.166178 304.554637,66.668266 C303.277221,65.2851248 300.511495,65.1591047 294.397508,66.254875 L294.367961,66.2595796 L294.277201,66.2752353 L294.200939,66.2854184 L294.177422,66.2893703 L294.133556,66.2946094 L294.058359,66.3038221 L294.017289,66.3077227 L293.958097,66.3139682 L293.872594,66.3199052 L293.836412,66.3229808 C289.178785,66.622588 286.02596,66.5426721 282.675416,65.7596302 L282.237127,65.6534803 C277.513186,64.4696137 273.38438,61.9344044 269.89751,57.8438488 C265.327167,52.6649314 264.428258,47.3444843 265.33083,39.5907314 C265.341876,39.4958409 265.352561,39.4050448 265.363271,39.3152325 L265.39586,39.0456361 C265.446013,38.6363365 265.504476,38.1839677 265.606382,37.4050748 C266.64254,29.4855143 266.154446,27.3651583 260.947314,24.8410542 L260.88367,24.8120765 L260.487315,24.7701162 C243.179899,23.0817461 225.769402,29.3460966 211.460486,42.7146347 Z M310.263558,76.1644026 L309.689815,77.0180079 C287.055298,110.562758 259.617046,139.192803 227.89468,162.155446 L226.866726,162.895509 L227.742508,162.749646 C230.610635,162.255671 233.404174,161.655745 236.141428,160.943142 L236.103549,160.952493 L236.837368,160.7405 C263.059345,153.060025 285.156333,135.633141 301.539246,110.559373 L302.038977,109.789422 C309.775466,97.8314943 312.660737,86.5258392 310.322936,76.4106082 L310.263558,76.1644026 Z M21.1646294,91.7152177 L21.1758387,92.258041 C21.4162018,101.933457 24.0691206,111.73405 29.1450754,121.081495 C37.9992452,137.386579 53.5788618,151.322606 74.6882288,161.229969 C77.2275456,160.308527 79.8065769,159.474327 82.4239635,158.728332 C84.0376866,158.277369 85.6601009,157.867754 87.2956615,157.498389 C63.7717593,148.324778 45.4123369,134.655363 33.5271455,117.909341 C27.6477823,109.625423 23.5058224,100.7704 21.1646294,91.7152177 Z M77.8052589,22.4726475 L77.7784184,22.5036585 C76.5925661,23.9398142 76.1261271,26.8662487 76.0815033,32.7084721 L76.0749512,32.9289994 C75.55062,43.0487231 72.6544003,50.1310773 64.4750459,55.7024803 C59.0345713,59.3499808 53.7157283,59.6516873 46.7932984,57.9343381 C46.672425,57.9043513 46.5549974,57.874902 46.438379,57.8452994 L46.0883144,57.7553404 C45.5001301,57.6023385 44.8662571,57.4282271 43.8571088,57.1466322 C36.0864275,54.9782846 33.9264398,55.1456964 30.6896222,59.8999617 L30.656453,59.9487929 L30.5578945,60.3464462 C26.3467724,77.5400113 30.1918319,95.9321237 41.6820061,112.121574 C54.4257796,130.077323 75.7548489,144.345953 103.88169,152.582545 C106.671611,153.414404 109.457189,154.16109 112.240854,154.82181 C115.532439,154.79334 118.916571,154.875168 122.405055,155.060951 C123.807732,155.135652 125.187871,155.221602 126.566562,155.320925 C129.885461,143.069657 139.416423,134.068463 150.875653,131.053489 C150.738547,125.437336 150.925997,119.771198 151.426281,114.030687 C132.972377,79.7641925 108.186669,49.0222913 77.8052589,22.4726475 Z M380.394677,10.070713 L380.052427,10.0910599 L381.297955,11.4597822 C416.726642,50.5383088 444.056724,94.4156987 462.395278,142.134242 L462.411115,142.174347 L462.444986,141.90322 C463.171616,135.928352 463.439848,130.375274 463.228463,125.00448 C462.067662,90.356364 447.441033,57.9861869 421.320752,30.2718009 C408.289903,16.3622778 394.43737,9.32975247 380.394677,10.070713 Z M539.380304,63.8402864 C515.330187,70.0149637 492.29532,86.3731643 473.211059,111.734609 C473.780982,116.136906 474.145404,120.579296 474.300491,125.058341 C474.405618,127.965222 474.398101,130.887631 474.280126,133.834203 C493.252995,103.535614 517.326889,82.4742016 543.561426,72.204529 C557.542716,66.7314662 571.753883,64.5126459 585.373329,65.4826841 C571.247591,60.3875308 555.450487,59.7143942 539.380304,63.8402864 Z M226.215779,20.8324987 L225.978083,20.8808179 C217.279366,22.7005776 208.793668,26.5233408 200.966726,32.2959595 C181.272724,46.8209136 167.310658,72.3249882 162.479778,105.581077 C161.262629,113.903556 160.709094,122.008624 160.855528,129.988653 C162.865431,130.079267 164.894052,130.35279 166.923335,130.821476 C167.250392,130.896909 167.575281,130.976714 167.897953,131.060812 C167.967634,123.87779 168.547128,116.613817 169.613666,109.208692 C174.217704,77.9949198 186.387373,52.7419 204.085383,35.9240969 C210.875222,29.4719496 218.345561,24.4113734 226.215779,20.8324987 Z M89.2181723,19.080954 L89.055387,19.0971513 L89.7756562,19.7477243 C115.20497,42.8731793 136.647033,68.9762865 153.652635,97.654319 C154.548541,92.7950144 155.637738,88.0934512 156.910347,83.5601918 C150.139851,64.2859789 137.947149,46.9024424 120.990817,31.994487 C110.330545,22.6372035 99.5518605,18.1569445 89.2181723,19.080954 Z" id="Combined-Shape" fill="#D99AB6" fill-rule="nonzero"></path>
    </g>
</svg>